<?xml version="1.0" ?><svg id="Layer_1" style="enable-background:new 0 0 512 512;" version="1.1" viewBox="0 0 512 512" xml:space="preserve" xmlns="http://www.w3.org/2000/svg" xmlns:xlink="http://www.w3.org/1999/xlink"><style type="text/css">
	.st0{fill:#691941;}
	.st1{fill:#FFFFFF;}
</style><g><polygon class="st0" points="152.7,106.7 207.1,123.3 152.7,139.8 207.1,156.4 152.7,173 207.1,189.6 152.7,206.2 207.1,222.8    152.7,239.4 207.1,256 152.7,272.6 207.1,289.2 152.7,305.8 207.1,322.4 152.7,339 207.1,355.6 152.7,372.2 207.1,388.8    152.7,405.4 512,405.4 512,106.7  "/><polygon class="st1" points="0,106.7 0,405.4 152.7,405.4 207.1,388.8 152.7,372.2 207.1,355.6 152.7,339 207.1,322.4 152.7,305.8    207.1,289.2 152.7,272.6 207.1,256 152.7,239.4 207.1,222.8 152.7,206.2 207.1,189.6 152.7,173 207.1,156.4 152.7,139.8    207.1,123.3 152.7,106.7  "/></g></svg>